# xmcd
#
# Track frame offsets: 
#        150
#        4655
#        22150
#        46299
#        74645
#        96434
#        114701
#        137500
#        163902
#        186845
#        207377
#        235869
#        264093
#        288760
#        320418
#
# Disc length: 4677 seconds
#
# Revision: 1
# Processed by: cddbd v1.5.2PL0 Copyright (c) Steve Scherf et al.
# Submitted via: ExactAudioCopyFreeDBPlugin 1.0
#
DISCID=d912430f
DTITLE=Gretchen Peters - Woman On The Wheel - Live From Toronto
DYEAR=2013
DGENRE=Americana
TTITLE0=Introduction
TTITLE1=Hello Cruel World
TTITLE2=Saint Francis
TTITLE3=The Matador
TTITLE4=Dark Angel
TTITLE5=Paradise Found
TTITLE6=Woman On The Wheel
TTITLE7=Five Minutes
TTITLE8=Camille
TTITLE9=Natural Disaster
TTITLE10=Idlewild
TTITLE11=Little World
TTITLE12=On A Bus To St Cloud
TTITLE13=To Say Goodbye
TTITLE14=Wild Horses
EXTD=YEAR: 2013
EXTT0=
EXTT1=
EXTT2=
EXTT3=
EXTT4=
EXTT5=
EXTT6=
EXTT7=
EXTT8=
EXTT9=
EXTT10=
EXTT11=
EXTT12=
EXTT13=
EXTT14=
PLAYORDER=
